<?xml version="1.0" encoding="UTF-8" standalone="no"?>
<svg width="56px" height="56px" viewBox="0 0 56 56" version="1.1" xmlns="http://www.w3.org/2000/svg" xmlns:xlink="http://www.w3.org/1999/xlink">
    <!-- Generator: Sketch 42 (36781) - http://www.bohemiancoding.com/sketch -->
    <title>Artboard</title>
    <desc>Created with Sketch.</desc>
    <defs>
        <polygon id="path-1" points="0.0216774194 0.360279084 0.0216774194 55.639071 48.2109419 55.639071 48.2109419 0.360279084 0.0216774194 0.360279084"></polygon>
    </defs>
    <g id="Page-1" stroke="none" stroke-width="1" fill="none" fill-rule="evenodd">
        <g id="Artboard">
            <g id="play-button-(3)" transform="translate(4.000000, 0.000000)">
                <mask id="mask-2" fill="white">
                    <use xlink:href="#path-1"></use>
                </mask>
                <g id="Clip-2"></g>
                <path d="M43.5578839,19.6130065 C42.7449806,19.1061161 41.6755613,19.3546839 41.168671,20.1675871 C40.6621419,20.9804903 40.9103484,22.050271 41.7218065,22.5568 C43.6146065,23.735329 44.7436387,25.7704774 44.7436387,28.0003613 C44.7436387,30.2288 43.6146065,32.2635871 41.7218065,33.4435613 L13.2774194,51.1793032 C11.2704516,52.4311742 8.83752258,52.491871 6.76985806,51.3458581 C4.70255484,50.1969548 3.46766452,48.1011097 3.46766452,45.7357419 L3.46766452,10.2631742 C3.46766452,7.89780645 4.70255484,5.80196129 6.76985806,4.65450323 C8.83752258,3.50740645 11.2704516,3.56810323 13.2774194,4.8196129 L29.8360774,15.144929 C30.6489806,15.6514581 31.7187613,15.4028903 32.2252903,14.5899871 C32.7321806,13.7770839 32.4836129,12.7076645 31.6721548,12.2007742 L15.1120516,1.87726452 C12.0212129,-0.0505806452 8.27282581,-0.146683871 5.08769032,1.62183226 C1.90255484,3.38890323 0,6.6192 0,10.2631742 L0,45.7357419 C0,49.3786323 1.90255484,52.6103742 5.08769032,54.3770839 C6.60474839,55.2196129 8.24898065,55.639071 9.89032258,55.639071 C11.6938839,55.639071 13.493471,55.1321806 15.1120516,54.1216516 L43.5578839,36.386271 C46.4724129,34.5682581 48.2109419,31.4340645 48.2109419,27.9989161 C48.2109419,24.5652129 46.4724129,21.4306581 43.5578839,19.6130065 Z" id="Fill-1" fill="#FFFFFF" mask="url(#mask-2)"></path>
            </g>
        </g>
    </g>
</svg>