<?xml version="1.0" encoding="UTF-8" standalone="no"?>
<svg width="100px" height="97px" viewBox="0 0 100 97" version="1.1" xmlns="http://www.w3.org/2000/svg" xmlns:xlink="http://www.w3.org/1999/xlink">
    <!-- Generator: Sketch 42 (36781) - http://www.bohemiancoding.com/sketch -->
    <title>Artboard</title>
    <desc>Created with Sketch.</desc>
    <defs>
        <polygon id="path-1" points="0 0 16.7715556 0 16.7715556 16 0 16"></polygon>
        <polygon id="path-3" points="0 0 16.7715556 0 16.7715556 16 0 16"></polygon>
        <polygon id="path-5" points="0 0 16.7715556 0 16.7715556 16 0 16"></polygon>
        <polygon id="path-7" points="0 0 16.7715556 0 16.7715556 16 0 16"></polygon>
        <polygon id="path-9" points="0 0 16.7715556 0 16.7715556 16 0 16"></polygon>
        <polygon id="path-11" points="0 0 16.7715556 0 16.7715556 16 0 16"></polygon>
        <polygon id="path-13" points="0 0 16.7715556 0 16.7715556 16 0 16"></polygon>
        <polyline id="path-15" points="0 0 16.7715556 0 16.7715556 16 0 16"></polyline>
        <polygon id="path-17" points="0 0 16.7715556 0 16.7715556 16 0 16"></polygon>
        <polyline id="path-19" points="0 0 16.7715556 0 16.7715556 16 0 16"></polyline>
        <polyline id="path-21" points="0 0 16.7715556 0 16.7715556 16 0 16"></polyline>
        <polygon id="path-23" points="0 0 16.7715556 0 16.7715556 16 0 16"></polygon>
        <polyline id="path-25" points="0 0 16.7715556 0 16.7715556 16 0 16"></polyline>
        <polyline id="path-27" points="0 0 16.7715556 0 16.7715556 16 0 16"></polyline>
        <polyline id="path-29" points="0 0 16.7715556 0 16.7715556 16 0 16"></polyline>
        <polygon id="path-31" points="0 0 16.7715556 0 16.7715556 16 0 16"></polygon>
        <polygon id="path-33" points="0 0 16.7715556 0 16.7715556 16 0 16"></polygon>
        <polyline id="path-35" points="0 0 16.7715556 0 16.7715556 16 0 16"></polyline>
        <polyline id="path-37" points="0 0 16.7715556 0 16.7715556 16 0 16"></polyline>
        <polyline id="path-39" points="0 0 16.7715556 0 16.7715556 16 0 16"></polyline>
        <polyline id="path-41" points="0 0 16.7715556 0 16.7715556 16 0 16"></polyline>
        <polyline id="path-43" points="0 0 16.7715556 0 16.7715556 16 0 16"></polyline>
        <polyline id="path-45" points="0 0 16.7715556 0 16.7715556 16 0 16"></polyline>
        <polyline id="path-47" points="0 0 16.7715556 0 16.7715556 16 0 16"></polyline>
        <polyline id="path-49" points="0 0 16.7715556 0 16.7715556 16 0 16"></polyline>
    </defs>
    <g id="Page-1" stroke="none" stroke-width="1" fill="none" fill-rule="evenodd">
        <g id="Artboard">
            <g id="Page-1-Copy-2" transform="translate(40.777778, 20.000000)">
                <mask id="mask-2" fill="white">
                    <use xlink:href="#path-1"></use>
                </mask>
                <g id="Clip-2"></g>
                <path d="M11.2284444,9.40657778 C11.0746667,9.52746667 11,9.75946667 11.0542222,9.94435556 L12.3493333,14.2376889 L8.66666667,11.6856889 C8.48177778,11.5568 8.28977778,11.5621333 8.11022222,11.6856889 L4.42844444,14.2376889 L5.72266667,9.94435556 C5.77866667,9.75946667 5.704,9.52746667 5.54933333,9.40657778 L1.96711111,6.60835556 L6.45155556,6.60835556 C6.67911111,6.60835556 6.83733333,6.49991111 6.91733333,6.27146667 L8.39377778,2.03324444 L9.86133333,6.27146667 C9.94044444,6.49991111 10.0977778,6.60835556 10.3351111,6.60835556 L14.8097778,6.60835556 L11.2284444,9.40657778 Z M16.7333333,5.93457778 C16.688,5.7248 16.488,5.59591111 16.2684444,5.59591111 L10.6995556,5.59591111 L8.87644444,0.337244444 C8.79644444,0.1088 8.63911111,0.000355555556 8.39377778,0.000355555556 C8.14755556,0.000355555556 7.98044444,0.1088 7.90133333,0.337244444 L6.07822222,5.59591111 L0.509333333,5.59591111 C0.263111111,5.59591111 0.108444444,5.70613333 0.0257777778,5.93457778 C-0.0382222222,6.17991111 0.016,6.36302222 0.190222222,6.49902222 L4.656,9.99057778 L3.03377778,15.3408 C2.96266667,15.5754667 3.03377778,15.7683556 3.216,15.9052444 C3.41777778,16.0243556 3.62755556,16.0385778 3.81777778,15.9052444 L8.39377778,12.7150222 L12.9591111,15.9052444 C13.0568889,15.9736889 13.1608889,15.9968 13.2604444,15.9968 C13.5431111,15.9968 13.7617778,15.7772444 13.7617778,15.4954667 C13.7617778,15.4501333 13.7564444,15.3852444 13.7253333,15.2856889 L12.1208889,9.99057778 L16.5875556,6.49902222 C16.7662222,6.35857778 16.8151111,6.17102222 16.7333333,5.93457778 L16.7333333,5.93457778 Z" id="Fill-1" fill="#FFA300" mask="url(#mask-2)"></path>
            </g>
            <g id="Page-1-Copy-3" transform="translate(61.777778, 20.000000)">
                <mask id="mask-4" fill="white">
                    <use xlink:href="#path-3"></use>
                </mask>
                <g id="Clip-2"></g>
                <path d="M11.2284444,9.40657778 C11.0746667,9.52746667 11,9.75946667 11.0542222,9.94435556 L12.3493333,14.2376889 L8.66666667,11.6856889 C8.48177778,11.5568 8.28977778,11.5621333 8.11022222,11.6856889 L4.42844444,14.2376889 L5.72266667,9.94435556 C5.77866667,9.75946667 5.704,9.52746667 5.54933333,9.40657778 L1.96711111,6.60835556 L6.45155556,6.60835556 C6.67911111,6.60835556 6.83733333,6.49991111 6.91733333,6.27146667 L8.39377778,2.03324444 L9.86133333,6.27146667 C9.94044444,6.49991111 10.0977778,6.60835556 10.3351111,6.60835556 L14.8097778,6.60835556 L11.2284444,9.40657778 Z M16.7333333,5.93457778 C16.688,5.7248 16.488,5.59591111 16.2684444,5.59591111 L10.6995556,5.59591111 L8.87644444,0.337244444 C8.79644444,0.1088 8.63911111,0.000355555556 8.39377778,0.000355555556 C8.14755556,0.000355555556 7.98044444,0.1088 7.90133333,0.337244444 L6.07822222,5.59591111 L0.509333333,5.59591111 C0.263111111,5.59591111 0.108444444,5.70613333 0.0257777778,5.93457778 C-0.0382222222,6.17991111 0.016,6.36302222 0.190222222,6.49902222 L4.656,9.99057778 L3.03377778,15.3408 C2.96266667,15.5754667 3.03377778,15.7683556 3.216,15.9052444 C3.41777778,16.0243556 3.62755556,16.0385778 3.81777778,15.9052444 L8.39377778,12.7150222 L12.9591111,15.9052444 C13.0568889,15.9736889 13.1608889,15.9968 13.2604444,15.9968 C13.5431111,15.9968 13.7617778,15.7772444 13.7617778,15.4954667 C13.7617778,15.4501333 13.7564444,15.3852444 13.7253333,15.2856889 L12.1208889,9.99057778 L16.5875556,6.49902222 C16.7662222,6.35857778 16.8151111,6.17102222 16.7333333,5.93457778 L16.7333333,5.93457778 Z" id="Fill-1" fill="#FFA300" mask="url(#mask-4)"></path>
            </g>
            <g id="Page-1-Copy-6" transform="translate(61.777778, 40.000000)">
                <mask id="mask-6" fill="white">
                    <use xlink:href="#path-5"></use>
                </mask>
                <g id="Clip-2"></g>
                <path d="M11.2284444,9.40657778 C11.0746667,9.52746667 11,9.75946667 11.0542222,9.94435556 L12.3493333,14.2376889 L8.66666667,11.6856889 C8.48177778,11.5568 8.28977778,11.5621333 8.11022222,11.6856889 L4.42844444,14.2376889 L5.72266667,9.94435556 C5.77866667,9.75946667 5.704,9.52746667 5.54933333,9.40657778 L1.96711111,6.60835556 L6.45155556,6.60835556 C6.67911111,6.60835556 6.83733333,6.49991111 6.91733333,6.27146667 L8.39377778,2.03324444 L9.86133333,6.27146667 C9.94044444,6.49991111 10.0977778,6.60835556 10.3351111,6.60835556 L14.8097778,6.60835556 L11.2284444,9.40657778 Z M16.7333333,5.93457778 C16.688,5.7248 16.488,5.59591111 16.2684444,5.59591111 L10.6995556,5.59591111 L8.87644444,0.337244444 C8.79644444,0.1088 8.63911111,0.000355555556 8.39377778,0.000355555556 C8.14755556,0.000355555556 7.98044444,0.1088 7.90133333,0.337244444 L6.07822222,5.59591111 L0.509333333,5.59591111 C0.263111111,5.59591111 0.108444444,5.70613333 0.0257777778,5.93457778 C-0.0382222222,6.17991111 0.016,6.36302222 0.190222222,6.49902222 L4.656,9.99057778 L3.03377778,15.3408 C2.96266667,15.5754667 3.03377778,15.7683556 3.216,15.9052444 C3.41777778,16.0243556 3.62755556,16.0385778 3.81777778,15.9052444 L8.39377778,12.7150222 L12.9591111,15.9052444 C13.0568889,15.9736889 13.1608889,15.9968 13.2604444,15.9968 C13.5431111,15.9968 13.7617778,15.7772444 13.7617778,15.4954667 C13.7617778,15.4501333 13.7564444,15.3852444 13.7253333,15.2856889 L12.1208889,9.99057778 L16.5875556,6.49902222 C16.7662222,6.35857778 16.8151111,6.17102222 16.7333333,5.93457778 L16.7333333,5.93457778 Z" id="Fill-1" fill="#FFA300" mask="url(#mask-6)"></path>
            </g>
            <g id="Page-1" transform="translate(82.777778, 0.000000)">
                <mask id="mask-8" fill="white">
                    <use xlink:href="#path-7"></use>
                </mask>
                <g id="Clip-2"></g>
                <path d="M11.2284444,9.40657778 C11.0746667,9.52746667 11,9.75946667 11.0542222,9.94435556 L12.3493333,14.2376889 L8.66666667,11.6856889 C8.48177778,11.5568 8.28977778,11.5621333 8.11022222,11.6856889 L4.42844444,14.2376889 L5.72266667,9.94435556 C5.77866667,9.75946667 5.704,9.52746667 5.54933333,9.40657778 L1.96711111,6.60835556 L6.45155556,6.60835556 C6.67911111,6.60835556 6.83733333,6.49991111 6.91733333,6.27146667 L8.39377778,2.03324444 L9.86133333,6.27146667 C9.94044444,6.49991111 10.0977778,6.60835556 10.3351111,6.60835556 L14.8097778,6.60835556 L11.2284444,9.40657778 Z M16.7333333,5.93457778 C16.688,5.7248 16.488,5.59591111 16.2684444,5.59591111 L10.6995556,5.59591111 L8.87644444,0.337244444 C8.79644444,0.1088 8.63911111,0.000355555556 8.39377778,0.000355555556 C8.14755556,0.000355555556 7.98044444,0.1088 7.90133333,0.337244444 L6.07822222,5.59591111 L0.509333333,5.59591111 C0.263111111,5.59591111 0.108444444,5.70613333 0.0257777778,5.93457778 C-0.0382222222,6.17991111 0.016,6.36302222 0.190222222,6.49902222 L4.656,9.99057778 L3.03377778,15.3408 C2.96266667,15.5754667 3.03377778,15.7683556 3.216,15.9052444 C3.41777778,16.0243556 3.62755556,16.0385778 3.81777778,15.9052444 L8.39377778,12.7150222 L12.9591111,15.9052444 C13.0568889,15.9736889 13.1608889,15.9968 13.2604444,15.9968 C13.5431111,15.9968 13.7617778,15.7772444 13.7617778,15.4954667 C13.7617778,15.4501333 13.7564444,15.3852444 13.7253333,15.2856889 L12.1208889,9.99057778 L16.5875556,6.49902222 C16.7662222,6.35857778 16.8151111,6.17102222 16.7333333,5.93457778 L16.7333333,5.93457778 Z" id="Fill-1" fill="#FFA300" mask="url(#mask-8)"></path>
            </g>
            <g id="Page-1-Copy" transform="translate(20.777778, 0.000000)">
                <mask id="mask-10" fill="white">
                    <use xlink:href="#path-9"></use>
                </mask>
                <g id="Clip-2"></g>
                <path d="M11.2284444,9.40657778 C11.0746667,9.52746667 11,9.75946667 11.0542222,9.94435556 L12.3493333,14.2376889 L8.66666667,11.6856889 C8.48177778,11.5568 8.28977778,11.5621333 8.11022222,11.6856889 L4.42844444,14.2376889 L5.72266667,9.94435556 C5.77866667,9.75946667 5.704,9.52746667 5.54933333,9.40657778 L1.96711111,6.60835556 L6.45155556,6.60835556 C6.67911111,6.60835556 6.83733333,6.49991111 6.91733333,6.27146667 L8.39377778,2.03324444 L9.86133333,6.27146667 C9.94044444,6.49991111 10.0977778,6.60835556 10.3351111,6.60835556 L14.8097778,6.60835556 L11.2284444,9.40657778 Z M16.7333333,5.93457778 C16.688,5.7248 16.488,5.59591111 16.2684444,5.59591111 L10.6995556,5.59591111 L8.87644444,0.337244444 C8.79644444,0.1088 8.63911111,0.000355555556 8.39377778,0.000355555556 C8.14755556,0.000355555556 7.98044444,0.1088 7.90133333,0.337244444 L6.07822222,5.59591111 L0.509333333,5.59591111 C0.263111111,5.59591111 0.108444444,5.70613333 0.0257777778,5.93457778 C-0.0382222222,6.17991111 0.016,6.36302222 0.190222222,6.49902222 L4.656,9.99057778 L3.03377778,15.3408 C2.96266667,15.5754667 3.03377778,15.7683556 3.216,15.9052444 C3.41777778,16.0243556 3.62755556,16.0385778 3.81777778,15.9052444 L8.39377778,12.7150222 L12.9591111,15.9052444 C13.0568889,15.9736889 13.1608889,15.9968 13.2604444,15.9968 C13.5431111,15.9968 13.7617778,15.7772444 13.7617778,15.4954667 C13.7617778,15.4501333 13.7564444,15.3852444 13.7253333,15.2856889 L12.1208889,9.99057778 L16.5875556,6.49902222 C16.7662222,6.35857778 16.8151111,6.17102222 16.7333333,5.93457778 L16.7333333,5.93457778 Z" id="Fill-1" fill="#FFA300" mask="url(#mask-10)"></path>
            </g>
            <g id="Page-1-Copy-5" transform="translate(40.777778, 0.000000)">
                <mask id="mask-12" fill="white">
                    <use xlink:href="#path-11"></use>
                </mask>
                <g id="Clip-2"></g>
                <path d="M11.2284444,9.40657778 C11.0746667,9.52746667 11,9.75946667 11.0542222,9.94435556 L12.3493333,14.2376889 L8.66666667,11.6856889 C8.48177778,11.5568 8.28977778,11.5621333 8.11022222,11.6856889 L4.42844444,14.2376889 L5.72266667,9.94435556 C5.77866667,9.75946667 5.704,9.52746667 5.54933333,9.40657778 L1.96711111,6.60835556 L6.45155556,6.60835556 C6.67911111,6.60835556 6.83733333,6.49991111 6.91733333,6.27146667 L8.39377778,2.03324444 L9.86133333,6.27146667 C9.94044444,6.49991111 10.0977778,6.60835556 10.3351111,6.60835556 L14.8097778,6.60835556 L11.2284444,9.40657778 Z M16.7333333,5.93457778 C16.688,5.7248 16.488,5.59591111 16.2684444,5.59591111 L10.6995556,5.59591111 L8.87644444,0.337244444 C8.79644444,0.1088 8.63911111,0.000355555556 8.39377778,0.000355555556 C8.14755556,0.000355555556 7.98044444,0.1088 7.90133333,0.337244444 L6.07822222,5.59591111 L0.509333333,5.59591111 C0.263111111,5.59591111 0.108444444,5.70613333 0.0257777778,5.93457778 C-0.0382222222,6.17991111 0.016,6.36302222 0.190222222,6.49902222 L4.656,9.99057778 L3.03377778,15.3408 C2.96266667,15.5754667 3.03377778,15.7683556 3.216,15.9052444 C3.41777778,16.0243556 3.62755556,16.0385778 3.81777778,15.9052444 L8.39377778,12.7150222 L12.9591111,15.9052444 C13.0568889,15.9736889 13.1608889,15.9968 13.2604444,15.9968 C13.5431111,15.9968 13.7617778,15.7772444 13.7617778,15.4954667 C13.7617778,15.4501333 13.7564444,15.3852444 13.7253333,15.2856889 L12.1208889,9.99057778 L16.5875556,6.49902222 C16.7662222,6.35857778 16.8151111,6.17102222 16.7333333,5.93457778 L16.7333333,5.93457778 Z" id="Fill-1" fill="#FFA300" mask="url(#mask-12)"></path>
            </g>
            <g id="Page-1-Copy-4" transform="translate(61.777778, 0.000000)">
                <mask id="mask-14" fill="white">
                    <use xlink:href="#path-13"></use>
                </mask>
                <g id="Clip-2"></g>
                <path d="M11.2284444,9.40657778 C11.0746667,9.52746667 11,9.75946667 11.0542222,9.94435556 L12.3493333,14.2376889 L8.66666667,11.6856889 C8.48177778,11.5568 8.28977778,11.5621333 8.11022222,11.6856889 L4.42844444,14.2376889 L5.72266667,9.94435556 C5.77866667,9.75946667 5.704,9.52746667 5.54933333,9.40657778 L1.96711111,6.60835556 L6.45155556,6.60835556 C6.67911111,6.60835556 6.83733333,6.49991111 6.91733333,6.27146667 L8.39377778,2.03324444 L9.86133333,6.27146667 C9.94044444,6.49991111 10.0977778,6.60835556 10.3351111,6.60835556 L14.8097778,6.60835556 L11.2284444,9.40657778 Z M16.7333333,5.93457778 C16.688,5.7248 16.488,5.59591111 16.2684444,5.59591111 L10.6995556,5.59591111 L8.87644444,0.337244444 C8.79644444,0.1088 8.63911111,0.000355555556 8.39377778,0.000355555556 C8.14755556,0.000355555556 7.98044444,0.1088 7.90133333,0.337244444 L6.07822222,5.59591111 L0.509333333,5.59591111 C0.263111111,5.59591111 0.108444444,5.70613333 0.0257777778,5.93457778 C-0.0382222222,6.17991111 0.016,6.36302222 0.190222222,6.49902222 L4.656,9.99057778 L3.03377778,15.3408 C2.96266667,15.5754667 3.03377778,15.7683556 3.216,15.9052444 C3.41777778,16.0243556 3.62755556,16.0385778 3.81777778,15.9052444 L8.39377778,12.7150222 L12.9591111,15.9052444 C13.0568889,15.9736889 13.1608889,15.9968 13.2604444,15.9968 C13.5431111,15.9968 13.7617778,15.7772444 13.7617778,15.4954667 C13.7617778,15.4501333 13.7564444,15.3852444 13.7253333,15.2856889 L12.1208889,9.99057778 L16.5875556,6.49902222 C16.7662222,6.35857778 16.8151111,6.17102222 16.7333333,5.93457778 L16.7333333,5.93457778 Z" id="Fill-1" fill="#FFA300" mask="url(#mask-14)"></path>
            </g>
            <g id="Page-1">
                <mask id="mask-16" fill="white">
                    <use xlink:href="#path-15"></use>
                </mask>
                <g id="Clip-2"></g>
                <path d="M16.7336,5.93413333 C16.6882667,5.72435556 16.4873778,5.59635556 16.2687111,5.59635556 L10.6998222,5.59635556 L8.87671111,0.3368 C8.79671111,0.108355556 8.63937778,-8.8888889e-05 8.39315556,-8.8888889e-05 C8.14782222,-8.8888889e-05 7.98071111,0.108355556 7.9016,0.3368 L6.07848889,5.59635556 L0.508711111,5.59635556 C0.263377778,5.59635556 0.108711111,5.70657778 0.0260444444,5.93413333 C-0.0379555556,6.18035556 0.0162666667,6.36346667 0.1896,6.49946667 L4.65626667,9.99013333 L3.03315556,15.3403556 C2.96293333,15.5750222 3.03315556,15.7688 3.21626667,15.9056889 C3.41715556,16.0239111 3.62693333,16.0381333 3.81804444,15.9056889 L8.39315556,12.7154667 L12.9593778,15.9056889 C13.0571556,15.9741333 13.1611556,15.9963556 13.2607111,15.9963556 C13.5433778,15.9963556 13.7620444,15.7776889 13.7620444,15.4950222 C13.7620444,15.4496889 13.7558222,15.3848 13.7256,15.2852444 L12.1211556,9.99013333 L16.5869333,6.49946667 C16.7664889,6.35902222 16.8153778,6.17057778 16.7336,5.93413333" id="Fill-1" fill="#FFA300" mask="url(#mask-16)"></path>
            </g>
            <g id="Page-1" transform="translate(82.777778, 20.000000)">
                <mask id="mask-18" fill="white">
                    <use xlink:href="#path-17"></use>
                </mask>
                <g id="Clip-2"></g>
                <path d="M11.2284444,9.40657778 C11.0746667,9.52746667 11,9.75946667 11.0542222,9.94435556 L12.3493333,14.2376889 L8.66666667,11.6856889 C8.48177778,11.5568 8.28977778,11.5621333 8.11022222,11.6856889 L4.42844444,14.2376889 L5.72266667,9.94435556 C5.77866667,9.75946667 5.704,9.52746667 5.54933333,9.40657778 L1.96711111,6.60835556 L6.45155556,6.60835556 C6.67911111,6.60835556 6.83733333,6.49991111 6.91733333,6.27146667 L8.39377778,2.03324444 L9.86133333,6.27146667 C9.94044444,6.49991111 10.0977778,6.60835556 10.3351111,6.60835556 L14.8097778,6.60835556 L11.2284444,9.40657778 Z M16.7333333,5.93457778 C16.688,5.7248 16.488,5.59591111 16.2684444,5.59591111 L10.6995556,5.59591111 L8.87644444,0.337244444 C8.79644444,0.1088 8.63911111,0.000355555556 8.39377778,0.000355555556 C8.14755556,0.000355555556 7.98044444,0.1088 7.90133333,0.337244444 L6.07822222,5.59591111 L0.509333333,5.59591111 C0.263111111,5.59591111 0.108444444,5.70613333 0.0257777778,5.93457778 C-0.0382222222,6.17991111 0.016,6.36302222 0.190222222,6.49902222 L4.656,9.99057778 L3.03377778,15.3408 C2.96266667,15.5754667 3.03377778,15.7683556 3.216,15.9052444 C3.41777778,16.0243556 3.62755556,16.0385778 3.81777778,15.9052444 L8.39377778,12.7150222 L12.9591111,15.9052444 C13.0568889,15.9736889 13.1608889,15.9968 13.2604444,15.9968 C13.5431111,15.9968 13.7617778,15.7772444 13.7617778,15.4954667 C13.7617778,15.4501333 13.7564444,15.3852444 13.7253333,15.2856889 L12.1208889,9.99057778 L16.5875556,6.49902222 C16.7662222,6.35857778 16.8151111,6.17102222 16.7333333,5.93457778 L16.7333333,5.93457778 Z" id="Fill-1" fill="#FFA300" mask="url(#mask-18)"></path>
            </g>
            <g id="Page-1" transform="translate(20.444444, 20.000000)">
                <mask id="mask-20" fill="white">
                    <use xlink:href="#path-19"></use>
                </mask>
                <g id="Clip-2"></g>
                <path d="M16.7336,5.93413333 C16.6882667,5.72435556 16.4873778,5.59635556 16.2687111,5.59635556 L10.6998222,5.59635556 L8.87671111,0.3368 C8.79671111,0.108355556 8.63937778,-8.8888889e-05 8.39315556,-8.8888889e-05 C8.14782222,-8.8888889e-05 7.98071111,0.108355556 7.9016,0.3368 L6.07848889,5.59635556 L0.508711111,5.59635556 C0.263377778,5.59635556 0.108711111,5.70657778 0.0260444444,5.93413333 C-0.0379555556,6.18035556 0.0162666667,6.36346667 0.1896,6.49946667 L4.65626667,9.99013333 L3.03315556,15.3403556 C2.96293333,15.5750222 3.03315556,15.7688 3.21626667,15.9056889 C3.41715556,16.0239111 3.62693333,16.0381333 3.81804444,15.9056889 L8.39315556,12.7154667 L12.9593778,15.9056889 C13.0571556,15.9741333 13.1611556,15.9963556 13.2607111,15.9963556 C13.5433778,15.9963556 13.7620444,15.7776889 13.7620444,15.4950222 C13.7620444,15.4496889 13.7558222,15.3848 13.7256,15.2852444 L12.1211556,9.99013333 L16.5869333,6.49946667 C16.7664889,6.35902222 16.8153778,6.17057778 16.7336,5.93413333" id="Fill-1" fill="#FFA300" mask="url(#mask-20)"></path>
            </g>
            <g id="Page-1" transform="translate(0.000000, 20.000000)">
                <mask id="mask-22" fill="white">
                    <use xlink:href="#path-21"></use>
                </mask>
                <g id="Clip-2"></g>
                <path d="M16.7336,5.93413333 C16.6882667,5.72435556 16.4873778,5.59635556 16.2687111,5.59635556 L10.6998222,5.59635556 L8.87671111,0.3368 C8.79671111,0.108355556 8.63937778,-8.8888889e-05 8.39315556,-8.8888889e-05 C8.14782222,-8.8888889e-05 7.98071111,0.108355556 7.9016,0.3368 L6.07848889,5.59635556 L0.508711111,5.59635556 C0.263377778,5.59635556 0.108711111,5.70657778 0.0260444444,5.93413333 C-0.0379555556,6.18035556 0.0162666667,6.36346667 0.1896,6.49946667 L4.65626667,9.99013333 L3.03315556,15.3403556 C2.96293333,15.5750222 3.03315556,15.7688 3.21626667,15.9056889 C3.41715556,16.0239111 3.62693333,16.0381333 3.81804444,15.9056889 L8.39315556,12.7154667 L12.9593778,15.9056889 C13.0571556,15.9741333 13.1611556,15.9963556 13.2607111,15.9963556 C13.5433778,15.9963556 13.7620444,15.7776889 13.7620444,15.4950222 C13.7620444,15.4496889 13.7558222,15.3848 13.7256,15.2852444 L12.1211556,9.99013333 L16.5869333,6.49946667 C16.7664889,6.35902222 16.8153778,6.17057778 16.7336,5.93413333" id="Fill-1" fill="#FFA300" mask="url(#mask-22)"></path>
            </g>
            <g id="Page-1" transform="translate(82.777778, 40.000000)">
                <mask id="mask-24" fill="white">
                    <use xlink:href="#path-23"></use>
                </mask>
                <g id="Clip-2"></g>
                <path d="M11.2284444,9.40657778 C11.0746667,9.52746667 11,9.75946667 11.0542222,9.94435556 L12.3493333,14.2376889 L8.66666667,11.6856889 C8.48177778,11.5568 8.28977778,11.5621333 8.11022222,11.6856889 L4.42844444,14.2376889 L5.72266667,9.94435556 C5.77866667,9.75946667 5.704,9.52746667 5.54933333,9.40657778 L1.96711111,6.60835556 L6.45155556,6.60835556 C6.67911111,6.60835556 6.83733333,6.49991111 6.91733333,6.27146667 L8.39377778,2.03324444 L9.86133333,6.27146667 C9.94044444,6.49991111 10.0977778,6.60835556 10.3351111,6.60835556 L14.8097778,6.60835556 L11.2284444,9.40657778 Z M16.7333333,5.93457778 C16.688,5.7248 16.488,5.59591111 16.2684444,5.59591111 L10.6995556,5.59591111 L8.87644444,0.337244444 C8.79644444,0.1088 8.63911111,0.000355555556 8.39377778,0.000355555556 C8.14755556,0.000355555556 7.98044444,0.1088 7.90133333,0.337244444 L6.07822222,5.59591111 L0.509333333,5.59591111 C0.263111111,5.59591111 0.108444444,5.70613333 0.0257777778,5.93457778 C-0.0382222222,6.17991111 0.016,6.36302222 0.190222222,6.49902222 L4.656,9.99057778 L3.03377778,15.3408 C2.96266667,15.5754667 3.03377778,15.7683556 3.216,15.9052444 C3.41777778,16.0243556 3.62755556,16.0385778 3.81777778,15.9052444 L8.39377778,12.7150222 L12.9591111,15.9052444 C13.0568889,15.9736889 13.1608889,15.9968 13.2604444,15.9968 C13.5431111,15.9968 13.7617778,15.7772444 13.7617778,15.4954667 C13.7617778,15.4501333 13.7564444,15.3852444 13.7253333,15.2856889 L12.1208889,9.99057778 L16.5875556,6.49902222 C16.7662222,6.35857778 16.8151111,6.17102222 16.7333333,5.93457778 L16.7333333,5.93457778 Z" id="Fill-1" fill="#FFA300" mask="url(#mask-24)"></path>
            </g>
            <g id="Page-1" transform="translate(40.888889, 40.000000)">
                <mask id="mask-26" fill="white">
                    <use xlink:href="#path-25"></use>
                </mask>
                <g id="Clip-2"></g>
                <path d="M16.7336,5.93413333 C16.6882667,5.72435556 16.4873778,5.59635556 16.2687111,5.59635556 L10.6998222,5.59635556 L8.87671111,0.3368 C8.79671111,0.108355556 8.63937778,-8.8888889e-05 8.39315556,-8.8888889e-05 C8.14782222,-8.8888889e-05 7.98071111,0.108355556 7.9016,0.3368 L6.07848889,5.59635556 L0.508711111,5.59635556 C0.263377778,5.59635556 0.108711111,5.70657778 0.0260444444,5.93413333 C-0.0379555556,6.18035556 0.0162666667,6.36346667 0.1896,6.49946667 L4.65626667,9.99013333 L3.03315556,15.3403556 C2.96293333,15.5750222 3.03315556,15.7688 3.21626667,15.9056889 C3.41715556,16.0239111 3.62693333,16.0381333 3.81804444,15.9056889 L8.39315556,12.7154667 L12.9593778,15.9056889 C13.0571556,15.9741333 13.1611556,15.9963556 13.2607111,15.9963556 C13.5433778,15.9963556 13.7620444,15.7776889 13.7620444,15.4950222 C13.7620444,15.4496889 13.7558222,15.3848 13.7256,15.2852444 L12.1211556,9.99013333 L16.5869333,6.49946667 C16.7664889,6.35902222 16.8153778,6.17057778 16.7336,5.93413333" id="Fill-1" fill="#FFA300" mask="url(#mask-26)"></path>
            </g>
            <g id="Page-1" transform="translate(20.444444, 40.000000)">
                <mask id="mask-28" fill="white">
                    <use xlink:href="#path-27"></use>
                </mask>
                <g id="Clip-2"></g>
                <path d="M16.7336,5.93413333 C16.6882667,5.72435556 16.4873778,5.59635556 16.2687111,5.59635556 L10.6998222,5.59635556 L8.87671111,0.3368 C8.79671111,0.108355556 8.63937778,-8.8888889e-05 8.39315556,-8.8888889e-05 C8.14782222,-8.8888889e-05 7.98071111,0.108355556 7.9016,0.3368 L6.07848889,5.59635556 L0.508711111,5.59635556 C0.263377778,5.59635556 0.108711111,5.70657778 0.0260444444,5.93413333 C-0.0379555556,6.18035556 0.0162666667,6.36346667 0.1896,6.49946667 L4.65626667,9.99013333 L3.03315556,15.3403556 C2.96293333,15.5750222 3.03315556,15.7688 3.21626667,15.9056889 C3.41715556,16.0239111 3.62693333,16.0381333 3.81804444,15.9056889 L8.39315556,12.7154667 L12.9593778,15.9056889 C13.0571556,15.9741333 13.1611556,15.9963556 13.2607111,15.9963556 C13.5433778,15.9963556 13.7620444,15.7776889 13.7620444,15.4950222 C13.7620444,15.4496889 13.7558222,15.3848 13.7256,15.2852444 L12.1211556,9.99013333 L16.5869333,6.49946667 C16.7664889,6.35902222 16.8153778,6.17057778 16.7336,5.93413333" id="Fill-1" fill="#FFA300" mask="url(#mask-28)"></path>
            </g>
            <g id="Page-1" transform="translate(0.000000, 40.000000)">
                <mask id="mask-30" fill="white">
                    <use xlink:href="#path-29"></use>
                </mask>
                <g id="Clip-2"></g>
                <path d="M16.7336,5.93413333 C16.6882667,5.72435556 16.4873778,5.59635556 16.2687111,5.59635556 L10.6998222,5.59635556 L8.87671111,0.3368 C8.79671111,0.108355556 8.63937778,-8.8888889e-05 8.39315556,-8.8888889e-05 C8.14782222,-8.8888889e-05 7.98071111,0.108355556 7.9016,0.3368 L6.07848889,5.59635556 L0.508711111,5.59635556 C0.263377778,5.59635556 0.108711111,5.70657778 0.0260444444,5.93413333 C-0.0379555556,6.18035556 0.0162666667,6.36346667 0.1896,6.49946667 L4.65626667,9.99013333 L3.03315556,15.3403556 C2.96293333,15.5750222 3.03315556,15.7688 3.21626667,15.9056889 C3.41715556,16.0239111 3.62693333,16.0381333 3.81804444,15.9056889 L8.39315556,12.7154667 L12.9593778,15.9056889 C13.0571556,15.9741333 13.1611556,15.9963556 13.2607111,15.9963556 C13.5433778,15.9963556 13.7620444,15.7776889 13.7620444,15.4950222 C13.7620444,15.4496889 13.7558222,15.3848 13.7256,15.2852444 L12.1211556,9.99013333 L16.5869333,6.49946667 C16.7664889,6.35902222 16.8153778,6.17057778 16.7336,5.93413333" id="Fill-1" fill="#FFA300" mask="url(#mask-30)"></path>
            </g>
            <g id="Page-1" transform="translate(82.777778, 60.000000)">
                <mask id="mask-32" fill="white">
                    <use xlink:href="#path-31"></use>
                </mask>
                <g id="Clip-2"></g>
                <path d="M11.2284444,9.40657778 C11.0746667,9.52746667 11,9.75946667 11.0542222,9.94435556 L12.3493333,14.2376889 L8.66666667,11.6856889 C8.48177778,11.5568 8.28977778,11.5621333 8.11022222,11.6856889 L4.42844444,14.2376889 L5.72266667,9.94435556 C5.77866667,9.75946667 5.704,9.52746667 5.54933333,9.40657778 L1.96711111,6.60835556 L6.45155556,6.60835556 C6.67911111,6.60835556 6.83733333,6.49991111 6.91733333,6.27146667 L8.39377778,2.03324444 L9.86133333,6.27146667 C9.94044444,6.49991111 10.0977778,6.60835556 10.3351111,6.60835556 L14.8097778,6.60835556 L11.2284444,9.40657778 Z M16.7333333,5.93457778 C16.688,5.7248 16.488,5.59591111 16.2684444,5.59591111 L10.6995556,5.59591111 L8.87644444,0.337244444 C8.79644444,0.1088 8.63911111,0.000355555556 8.39377778,0.000355555556 C8.14755556,0.000355555556 7.98044444,0.1088 7.90133333,0.337244444 L6.07822222,5.59591111 L0.509333333,5.59591111 C0.263111111,5.59591111 0.108444444,5.70613333 0.0257777778,5.93457778 C-0.0382222222,6.17991111 0.016,6.36302222 0.190222222,6.49902222 L4.656,9.99057778 L3.03377778,15.3408 C2.96266667,15.5754667 3.03377778,15.7683556 3.216,15.9052444 C3.41777778,16.0243556 3.62755556,16.0385778 3.81777778,15.9052444 L8.39377778,12.7150222 L12.9591111,15.9052444 C13.0568889,15.9736889 13.1608889,15.9968 13.2604444,15.9968 C13.5431111,15.9968 13.7617778,15.7772444 13.7617778,15.4954667 C13.7617778,15.4501333 13.7564444,15.3852444 13.7253333,15.2856889 L12.1208889,9.99057778 L16.5875556,6.49902222 C16.7662222,6.35857778 16.8151111,6.17102222 16.7333333,5.93457778 L16.7333333,5.93457778 Z" id="Fill-1" fill="#FFA300" mask="url(#mask-32)"></path>
            </g>
            <g id="Page-1-Copy-7" transform="translate(82.777778, 80.000000)">
                <mask id="mask-34" fill="white">
                    <use xlink:href="#path-33"></use>
                </mask>
                <g id="Clip-2"></g>
                <path d="M16.7333333,5.93457778 C16.688,5.7248 16.488,5.59591111 16.2684444,5.59591111 L10.6995556,5.59591111 L8.87644444,0.337244444 C8.79644444,0.1088 8.63911111,0.000355555556 8.39377778,0.000355555556 C8.14755556,0.000355555556 7.98044444,0.1088 7.90133333,0.337244444 L6.07822222,5.59591111 L0.509333333,5.59591111 C0.263111111,5.59591111 0.108444444,5.70613333 0.0257777778,5.93457778 C-0.0382222222,6.17991111 0.016,6.36302222 0.190222222,6.49902222 L4.656,9.99057778 L3.03377778,15.3408 C2.96266667,15.5754667 3.03377778,15.7683556 3.216,15.9052444 C3.41777778,16.0243556 3.62755556,16.0385778 3.81777778,15.9052444 L8.39377778,12.7150222 L12.9591111,15.9052444 C13.0568889,15.9736889 13.1608889,15.9968 13.2604444,15.9968 C13.5431111,15.9968 13.7617778,15.7772444 13.7617778,15.4954667 C13.7617778,15.4501333 13.7564444,15.3852444 13.7253333,15.2856889 L12.1208889,9.99057778 L16.5875556,6.49902222 C16.7662222,6.35857778 16.8151111,6.17102222 16.7333333,5.93457778 L16.7333333,5.93457778 Z" id="Fill-1" fill="#FFA300" mask="url(#mask-34)"></path>
            </g>
            <g id="Page-1" transform="translate(62.333333, 60.000000)">
                <mask id="mask-36" fill="white">
                    <use xlink:href="#path-35"></use>
                </mask>
                <g id="Clip-2"></g>
                <path d="M16.2687111,5.59635556 L10.6998222,5.59635556 L8.87671111,0.3368 C8.79671111,0.108355556 8.63937778,-8.8888889e-05 8.39315556,-8.8888889e-05 C8.14782222,-8.8888889e-05 7.98071111,0.108355556 7.9016,0.3368 L6.07848889,5.59635556 L0.508711111,5.59635556 C0.263377778,5.59635556 0.108711111,5.70657778 0.0260444444,5.93413333 C-0.0379555556,6.18035556 0.0162666667,6.36346667 0.1896,6.49946667 L4.65626667,9.99013333 L3.03315556,15.3403556 C2.96293333,15.5750222 3.03315556,15.7688 3.21626667,15.9056889 C3.41715556,16.0239111 3.62693333,16.0381333 3.81804444,15.9056889 L8.39315556,12.7154667 L12.9593778,15.9056889 C13.0571556,15.9741333 13.1611556,15.9963556 13.2607111,15.9963556 C13.5433778,15.9963556 13.7620444,15.7776889 13.7620444,15.4950222 C13.7620444,15.4496889 13.7558222,15.3848 13.7256,15.2852444 L12.1211556,9.99013333 L16.5869333,6.49946667 C16.7664889,6.35902222 16.8153778,6.17057778 16.7336,5.93413333 C16.6882667,5.72435556 16.4873778,5.59635556 16.2687111,5.59635556 Z" id="Fill-1" fill="#FFA300" mask="url(#mask-36)"></path>
            </g>
            <g id="Page-1" transform="translate(40.888889, 60.000000)">
                <mask id="mask-38" fill="white">
                    <use xlink:href="#path-37"></use>
                </mask>
                <g id="Clip-2"></g>
                <path d="M16.7336,5.93413333 C16.6882667,5.72435556 16.4873778,5.59635556 16.2687111,5.59635556 L10.6998222,5.59635556 L8.87671111,0.3368 C8.79671111,0.108355556 8.63937778,-8.8888889e-05 8.39315556,-8.8888889e-05 C8.14782222,-8.8888889e-05 7.98071111,0.108355556 7.9016,0.3368 L6.07848889,5.59635556 L0.508711111,5.59635556 C0.263377778,5.59635556 0.108711111,5.70657778 0.0260444444,5.93413333 C-0.0379555556,6.18035556 0.0162666667,6.36346667 0.1896,6.49946667 L4.65626667,9.99013333 L3.03315556,15.3403556 C2.96293333,15.5750222 3.03315556,15.7688 3.21626667,15.9056889 C3.41715556,16.0239111 3.62693333,16.0381333 3.81804444,15.9056889 L8.39315556,12.7154667 L12.9593778,15.9056889 C13.0571556,15.9741333 13.1611556,15.9963556 13.2607111,15.9963556 C13.5433778,15.9963556 13.7620444,15.7776889 13.7620444,15.4950222 C13.7620444,15.4496889 13.7558222,15.3848 13.7256,15.2852444 L12.1211556,9.99013333 L16.5869333,6.49946667 C16.7664889,6.35902222 16.8153778,6.17057778 16.7336,5.93413333" id="Fill-1" fill="#FFA300" mask="url(#mask-38)"></path>
            </g>
            <g id="Page-1" transform="translate(20.444444, 60.000000)">
                <mask id="mask-40" fill="white">
                    <use xlink:href="#path-39"></use>
                </mask>
                <g id="Clip-2"></g>
                <path d="M16.7336,5.93413333 C16.6882667,5.72435556 16.4873778,5.59635556 16.2687111,5.59635556 L10.6998222,5.59635556 L8.87671111,0.3368 C8.79671111,0.108355556 8.63937778,-8.8888889e-05 8.39315556,-8.8888889e-05 C8.14782222,-8.8888889e-05 7.98071111,0.108355556 7.9016,0.3368 L6.07848889,5.59635556 L0.508711111,5.59635556 C0.263377778,5.59635556 0.108711111,5.70657778 0.0260444444,5.93413333 C-0.0379555556,6.18035556 0.0162666667,6.36346667 0.1896,6.49946667 L4.65626667,9.99013333 L3.03315556,15.3403556 C2.96293333,15.5750222 3.03315556,15.7688 3.21626667,15.9056889 C3.41715556,16.0239111 3.62693333,16.0381333 3.81804444,15.9056889 L8.39315556,12.7154667 L12.9593778,15.9056889 C13.0571556,15.9741333 13.1611556,15.9963556 13.2607111,15.9963556 C13.5433778,15.9963556 13.7620444,15.7776889 13.7620444,15.4950222 C13.7620444,15.4496889 13.7558222,15.3848 13.7256,15.2852444 L12.1211556,9.99013333 L16.5869333,6.49946667 C16.7664889,6.35902222 16.8153778,6.17057778 16.7336,5.93413333" id="Fill-1" fill="#FFA300" mask="url(#mask-40)"></path>
            </g>
            <g id="Page-1" transform="translate(0.000000, 60.000000)">
                <mask id="mask-42" fill="white">
                    <use xlink:href="#path-41"></use>
                </mask>
                <g id="Clip-2"></g>
                <path d="M16.7336,5.93413333 C16.6882667,5.72435556 16.4873778,5.59635556 16.2687111,5.59635556 L10.6998222,5.59635556 L8.87671111,0.3368 C8.79671111,0.108355556 8.63937778,-8.8888889e-05 8.39315556,-8.8888889e-05 C8.14782222,-8.8888889e-05 7.98071111,0.108355556 7.9016,0.3368 L6.07848889,5.59635556 L0.508711111,5.59635556 C0.263377778,5.59635556 0.108711111,5.70657778 0.0260444444,5.93413333 C-0.0379555556,6.18035556 0.0162666667,6.36346667 0.1896,6.49946667 L4.65626667,9.99013333 L3.03315556,15.3403556 C2.96293333,15.5750222 3.03315556,15.7688 3.21626667,15.9056889 C3.41715556,16.0239111 3.62693333,16.0381333 3.81804444,15.9056889 L8.39315556,12.7154667 L12.9593778,15.9056889 C13.0571556,15.9741333 13.1611556,15.9963556 13.2607111,15.9963556 C13.5433778,15.9963556 13.7620444,15.7776889 13.7620444,15.4950222 C13.7620444,15.4496889 13.7558222,15.3848 13.7256,15.2852444 L12.1211556,9.99013333 L16.5869333,6.49946667 C16.7664889,6.35902222 16.8153778,6.17057778 16.7336,5.93413333" id="Fill-1" fill="#FFA300" mask="url(#mask-42)"></path>
            </g>
            <g id="Page-1" transform="translate(62.333333, 80.000000)">
                <mask id="mask-44" fill="white">
                    <use xlink:href="#path-43"></use>
                </mask>
                <g id="Clip-2"></g>
                <path d="M16.2687111,5.59635556 L10.6998222,5.59635556 L8.87671111,0.3368 C8.79671111,0.108355556 8.63937778,-8.8888889e-05 8.39315556,-8.8888889e-05 C8.14782222,-8.8888889e-05 7.98071111,0.108355556 7.9016,0.3368 L6.07848889,5.59635556 L0.508711111,5.59635556 C0.263377778,5.59635556 0.108711111,5.70657778 0.0260444444,5.93413333 C-0.0379555556,6.18035556 0.0162666667,6.36346667 0.1896,6.49946667 L4.65626667,9.99013333 L3.03315556,15.3403556 C2.96293333,15.5750222 3.03315556,15.7688 3.21626667,15.9056889 C3.41715556,16.0239111 3.62693333,16.0381333 3.81804444,15.9056889 L8.39315556,12.7154667 L12.9593778,15.9056889 C13.0571556,15.9741333 13.1611556,15.9963556 13.2607111,15.9963556 C13.5433778,15.9963556 13.7620444,15.7776889 13.7620444,15.4950222 C13.7620444,15.4496889 13.7558222,15.3848 13.7256,15.2852444 L12.1211556,9.99013333 L16.5869333,6.49946667 C16.7664889,6.35902222 16.8153778,6.17057778 16.7336,5.93413333 C16.6882667,5.72435556 16.4873778,5.59635556 16.2687111,5.59635556 Z" id="Fill-1" fill="#FFA300" mask="url(#mask-44)"></path>
            </g>
            <g id="Page-1" transform="translate(40.888889, 80.000000)">
                <mask id="mask-46" fill="white">
                    <use xlink:href="#path-45"></use>
                </mask>
                <g id="Clip-2"></g>
                <path d="M16.7336,5.93413333 C16.6882667,5.72435556 16.4873778,5.59635556 16.2687111,5.59635556 L10.6998222,5.59635556 L8.87671111,0.3368 C8.79671111,0.108355556 8.63937778,-8.8888889e-05 8.39315556,-8.8888889e-05 C8.14782222,-8.8888889e-05 7.98071111,0.108355556 7.9016,0.3368 L6.07848889,5.59635556 L0.508711111,5.59635556 C0.263377778,5.59635556 0.108711111,5.70657778 0.0260444444,5.93413333 C-0.0379555556,6.18035556 0.0162666667,6.36346667 0.1896,6.49946667 L4.65626667,9.99013333 L3.03315556,15.3403556 C2.96293333,15.5750222 3.03315556,15.7688 3.21626667,15.9056889 C3.41715556,16.0239111 3.62693333,16.0381333 3.81804444,15.9056889 L8.39315556,12.7154667 L12.9593778,15.9056889 C13.0571556,15.9741333 13.1611556,15.9963556 13.2607111,15.9963556 C13.5433778,15.9963556 13.7620444,15.7776889 13.7620444,15.4950222 C13.7620444,15.4496889 13.7558222,15.3848 13.7256,15.2852444 L12.1211556,9.99013333 L16.5869333,6.49946667 C16.7664889,6.35902222 16.8153778,6.17057778 16.7336,5.93413333" id="Fill-1" fill="#FFA300" mask="url(#mask-46)"></path>
            </g>
            <g id="Page-1" transform="translate(20.444444, 80.000000)">
                <mask id="mask-48" fill="white">
                    <use xlink:href="#path-47"></use>
                </mask>
                <g id="Clip-2"></g>
                <path d="M16.7336,5.93413333 C16.6882667,5.72435556 16.4873778,5.59635556 16.2687111,5.59635556 L10.6998222,5.59635556 L8.87671111,0.3368 C8.79671111,0.108355556 8.63937778,-8.8888889e-05 8.39315556,-8.8888889e-05 C8.14782222,-8.8888889e-05 7.98071111,0.108355556 7.9016,0.3368 L6.07848889,5.59635556 L0.508711111,5.59635556 C0.263377778,5.59635556 0.108711111,5.70657778 0.0260444444,5.93413333 C-0.0379555556,6.18035556 0.0162666667,6.36346667 0.1896,6.49946667 L4.65626667,9.99013333 L3.03315556,15.3403556 C2.96293333,15.5750222 3.03315556,15.7688 3.21626667,15.9056889 C3.41715556,16.0239111 3.62693333,16.0381333 3.81804444,15.9056889 L8.39315556,12.7154667 L12.9593778,15.9056889 C13.0571556,15.9741333 13.1611556,15.9963556 13.2607111,15.9963556 C13.5433778,15.9963556 13.7620444,15.7776889 13.7620444,15.4950222 C13.7620444,15.4496889 13.7558222,15.3848 13.7256,15.2852444 L12.1211556,9.99013333 L16.5869333,6.49946667 C16.7664889,6.35902222 16.8153778,6.17057778 16.7336,5.93413333" id="Fill-1" fill="#FFA300" mask="url(#mask-48)"></path>
            </g>
            <g id="Page-1" transform="translate(0.000000, 80.000000)">
                <mask id="mask-50" fill="white">
                    <use xlink:href="#path-49"></use>
                </mask>
                <g id="Clip-2"></g>
                <path d="M16.7336,5.93413333 C16.6882667,5.72435556 16.4873778,5.59635556 16.2687111,5.59635556 L10.6998222,5.59635556 L8.87671111,0.3368 C8.79671111,0.108355556 8.63937778,-8.8888889e-05 8.39315556,-8.8888889e-05 C8.14782222,-8.8888889e-05 7.98071111,0.108355556 7.9016,0.3368 L6.07848889,5.59635556 L0.508711111,5.59635556 C0.263377778,5.59635556 0.108711111,5.70657778 0.0260444444,5.93413333 C-0.0379555556,6.18035556 0.0162666667,6.36346667 0.1896,6.49946667 L4.65626667,9.99013333 L3.03315556,15.3403556 C2.96293333,15.5750222 3.03315556,15.7688 3.21626667,15.9056889 C3.41715556,16.0239111 3.62693333,16.0381333 3.81804444,15.9056889 L8.39315556,12.7154667 L12.9593778,15.9056889 C13.0571556,15.9741333 13.1611556,15.9963556 13.2607111,15.9963556 C13.5433778,15.9963556 13.7620444,15.7776889 13.7620444,15.4950222 C13.7620444,15.4496889 13.7558222,15.3848 13.7256,15.2852444 L12.1211556,9.99013333 L16.5869333,6.49946667 C16.7664889,6.35902222 16.8153778,6.17057778 16.7336,5.93413333" id="Fill-1" fill="#FFA300" mask="url(#mask-50)"></path>
            </g>
        </g>
    </g>
</svg>